<svg width="20" height="20" viewBox="0 0 20 20" fill="none" xmlns="http://www.w3.org/2000/svg">
<path d="M14.1666 6.66667V6.66667C14.1666 4.36548 12.3011 2.5 9.99996 2.5V2.5C7.69877 2.5 5.83329 4.36548 5.83329 6.66667V6.66667M8.22421 17.5H11.7757C12.4918 17.5 12.8498 17.5 13.1637 17.4556C14.8391 17.2184 16.2398 16.0613 16.7892 14.4609C16.8921 14.1611 16.9597 13.8095 17.0949 13.1063V13.1063C17.2856 12.1149 17.3809 11.6192 17.3852 11.2146C17.4086 9.02096 15.8467 7.13016 13.6882 6.73884C13.2901 6.66667 12.7853 6.66667 11.7757 6.66667H8.22421C7.21465 6.66667 6.70987 6.66667 6.31176 6.73884C4.15319 7.13016 2.59136 9.02096 2.61472 11.2146C2.61903 11.6192 2.71436 12.1149 2.90501 13.1063V13.1063C3.04024 13.8095 3.10786 14.1611 3.21075 14.4609C3.76008 16.0613 5.16082 17.2184 6.83624 17.4556C7.15007 17.5 7.50812 17.5 8.22421 17.5Z" stroke="white" stroke-width="2" stroke-linecap="round" stroke-linejoin="round"/>
</svg>
